<mxfile host="65bd71144e">
    <diagram id="u8Z9VK_JTIOSK9B5WTEp" name="Page-1">
        <mxGraphModel dx="709" dy="377" grid="1" gridSize="10" guides="1" tooltips="1" connect="1" arrows="1" fold="1" page="1" pageScale="1" pageWidth="850" pageHeight="1100" math="0" shadow="0">
            <root>
                <mxCell id="0"/>
                <mxCell id="1" parent="0"/>
                <mxCell id="2" value="" style="shape=table;startSize=0;container=1;collapsible=0;childLayout=tableLayout;" vertex="1" parent="1">
                    <mxGeometry x="300" y="230" width="240" height="160" as="geometry"/>
                </mxCell>
                <mxCell id="3" value="" style="shape=tableRow;horizontal=0;startSize=0;swimlaneHead=0;swimlaneBody=0;top=0;left=0;bottom=0;right=0;collapsible=0;dropTarget=0;fillColor=none;points=[[0,0.5],[1,0.5]];portConstraint=eastwest;" vertex="1" parent="2">
                    <mxGeometry width="240" height="40" as="geometry"/>
                </mxCell>
                <mxCell id="4" value="0" style="shape=partialRectangle;html=1;whiteSpace=wrap;connectable=0;overflow=hidden;fillColor=none;top=0;left=0;bottom=0;right=0;pointerEvents=1;" vertex="1" parent="3">
                    <mxGeometry width="60" height="40" as="geometry">
                        <mxRectangle width="60" height="40" as="alternateBounds"/>
                    </mxGeometry>
                </mxCell>
                <mxCell id="5" value="50" style="shape=partialRectangle;html=1;whiteSpace=wrap;connectable=0;overflow=hidden;fillColor=none;top=0;left=0;bottom=0;right=0;pointerEvents=1;" vertex="1" parent="3">
                    <mxGeometry x="60" width="60" height="40" as="geometry">
                        <mxRectangle width="60" height="40" as="alternateBounds"/>
                    </mxGeometry>
                </mxCell>
                <mxCell id="6" value="0" style="shape=partialRectangle;html=1;whiteSpace=wrap;connectable=0;overflow=hidden;fillColor=none;top=0;left=0;bottom=0;right=0;pointerEvents=1;" vertex="1" parent="3">
                    <mxGeometry x="120" width="60" height="40" as="geometry">
                        <mxRectangle width="60" height="40" as="alternateBounds"/>
                    </mxGeometry>
                </mxCell>
                <mxCell id="7" value="20" style="shape=partialRectangle;html=1;whiteSpace=wrap;connectable=0;overflow=hidden;fillColor=none;top=0;left=0;bottom=0;right=0;pointerEvents=1;" vertex="1" parent="3">
                    <mxGeometry x="180" width="60" height="40" as="geometry">
                        <mxRectangle width="60" height="40" as="alternateBounds"/>
                    </mxGeometry>
                </mxCell>
                <mxCell id="8" value="" style="shape=tableRow;horizontal=0;startSize=0;swimlaneHead=0;swimlaneBody=0;top=0;left=0;bottom=0;right=0;collapsible=0;dropTarget=0;fillColor=none;points=[[0,0.5],[1,0.5]];portConstraint=eastwest;" vertex="1" parent="2">
                    <mxGeometry y="40" width="240" height="40" as="geometry"/>
                </mxCell>
                <mxCell id="9" value="0" style="shape=partialRectangle;html=1;whiteSpace=wrap;connectable=0;overflow=hidden;fillColor=none;top=0;left=0;bottom=0;right=0;pointerEvents=1;" vertex="1" parent="8">
                    <mxGeometry width="60" height="40" as="geometry">
                        <mxRectangle width="60" height="40" as="alternateBounds"/>
                    </mxGeometry>
                </mxCell>
                <mxCell id="10" value="0" style="shape=partialRectangle;html=1;whiteSpace=wrap;connectable=0;overflow=hidden;fillColor=none;top=0;left=0;bottom=0;right=0;pointerEvents=1;" vertex="1" parent="8">
                    <mxGeometry x="60" width="60" height="40" as="geometry">
                        <mxRectangle width="60" height="40" as="alternateBounds"/>
                    </mxGeometry>
                </mxCell>
                <mxCell id="11" value="80" style="shape=partialRectangle;html=1;whiteSpace=wrap;connectable=0;overflow=hidden;fillColor=none;top=0;left=0;bottom=0;right=0;pointerEvents=1;" vertex="1" parent="8">
                    <mxGeometry x="120" width="60" height="40" as="geometry">
                        <mxRectangle width="60" height="40" as="alternateBounds"/>
                    </mxGeometry>
                </mxCell>
                <mxCell id="12" value="50" style="shape=partialRectangle;html=1;whiteSpace=wrap;connectable=0;overflow=hidden;fillColor=none;top=0;left=0;bottom=0;right=0;pointerEvents=1;" vertex="1" parent="8">
                    <mxGeometry x="180" width="60" height="40" as="geometry">
                        <mxRectangle width="60" height="40" as="alternateBounds"/>
                    </mxGeometry>
                </mxCell>
                <mxCell id="13" value="" style="shape=tableRow;horizontal=0;startSize=0;swimlaneHead=0;swimlaneBody=0;top=0;left=0;bottom=0;right=0;collapsible=0;dropTarget=0;fillColor=none;points=[[0,0.5],[1,0.5]];portConstraint=eastwest;" vertex="1" parent="2">
                    <mxGeometry y="80" width="240" height="40" as="geometry"/>
                </mxCell>
                <mxCell id="14" value="15" style="shape=partialRectangle;html=1;whiteSpace=wrap;connectable=0;overflow=hidden;fillColor=none;top=0;left=0;bottom=0;right=0;pointerEvents=1;" vertex="1" parent="13">
                    <mxGeometry width="60" height="40" as="geometry">
                        <mxRectangle width="60" height="40" as="alternateBounds"/>
                    </mxGeometry>
                </mxCell>
                <mxCell id="15" value="0" style="shape=partialRectangle;html=1;whiteSpace=wrap;connectable=0;overflow=hidden;fillColor=none;top=0;left=0;bottom=0;right=0;pointerEvents=1;" vertex="1" parent="13">
                    <mxGeometry x="60" width="60" height="40" as="geometry">
                        <mxRectangle width="60" height="40" as="alternateBounds"/>
                    </mxGeometry>
                </mxCell>
                <mxCell id="16" value="0" style="shape=partialRectangle;html=1;whiteSpace=wrap;connectable=0;overflow=hidden;fillColor=none;top=0;left=0;bottom=0;right=0;pointerEvents=1;" vertex="1" parent="13">
                    <mxGeometry x="120" width="60" height="40" as="geometry">
                        <mxRectangle width="60" height="40" as="alternateBounds"/>
                    </mxGeometry>
                </mxCell>
                <mxCell id="17" value="0" style="shape=partialRectangle;html=1;whiteSpace=wrap;connectable=0;overflow=hidden;fillColor=none;top=0;left=0;bottom=0;right=0;pointerEvents=1;" vertex="1" parent="13">
                    <mxGeometry x="180" width="60" height="40" as="geometry">
                        <mxRectangle width="60" height="40" as="alternateBounds"/>
                    </mxGeometry>
                </mxCell>
                <mxCell id="18" value="" style="shape=tableRow;horizontal=0;startSize=0;swimlaneHead=0;swimlaneBody=0;top=0;left=0;bottom=0;right=0;collapsible=0;dropTarget=0;fillColor=none;points=[[0,0.5],[1,0.5]];portConstraint=eastwest;" vertex="1" parent="2">
                    <mxGeometry y="120" width="240" height="40" as="geometry"/>
                </mxCell>
                <mxCell id="19" value="0" style="shape=partialRectangle;html=1;whiteSpace=wrap;connectable=0;overflow=hidden;fillColor=none;top=0;left=0;bottom=0;right=0;pointerEvents=1;" vertex="1" parent="18">
                    <mxGeometry width="60" height="40" as="geometry">
                        <mxRectangle width="60" height="40" as="alternateBounds"/>
                    </mxGeometry>
                </mxCell>
                <mxCell id="20" value="0" style="shape=partialRectangle;html=1;whiteSpace=wrap;connectable=0;overflow=hidden;fillColor=none;top=0;left=0;bottom=0;right=0;pointerEvents=1;" vertex="1" parent="18">
                    <mxGeometry x="60" width="60" height="40" as="geometry">
                        <mxRectangle width="60" height="40" as="alternateBounds"/>
                    </mxGeometry>
                </mxCell>
                <mxCell id="21" value="100" style="shape=partialRectangle;html=1;whiteSpace=wrap;connectable=0;overflow=hidden;fillColor=none;top=0;left=0;bottom=0;right=0;pointerEvents=1;" vertex="1" parent="18">
                    <mxGeometry x="120" width="60" height="40" as="geometry">
                        <mxRectangle width="60" height="40" as="alternateBounds"/>
                    </mxGeometry>
                </mxCell>
                <mxCell id="22" value="20" style="shape=partialRectangle;html=1;whiteSpace=wrap;connectable=0;overflow=hidden;fillColor=none;top=0;left=0;bottom=0;right=0;pointerEvents=1;" vertex="1" parent="18">
                    <mxGeometry x="180" width="60" height="40" as="geometry">
                        <mxRectangle width="60" height="40" as="alternateBounds"/>
                    </mxGeometry>
                </mxCell>
                <mxCell id="23" value="a" style="text;html=1;align=center;verticalAlign=middle;resizable=0;points=[];autosize=1;strokeColor=none;fillColor=none;" vertex="1" parent="1">
                    <mxGeometry x="315" y="195" width="30" height="30" as="geometry"/>
                </mxCell>
                <mxCell id="24" value="a" style="text;strokeColor=none;align=center;fillColor=none;html=1;verticalAlign=middle;whiteSpace=wrap;rounded=0;" vertex="1" parent="1">
                    <mxGeometry x="250" y="230" width="60" height="30" as="geometry"/>
                </mxCell>
                <mxCell id="25" value="x&amp;nbsp; &amp;nbsp; &amp;nbsp;=&amp;nbsp; &amp;nbsp; &amp;nbsp;b" style="text;html=1;align=center;verticalAlign=middle;resizable=0;points=[];autosize=1;strokeColor=none;fillColor=none;" vertex="1" parent="1">
                    <mxGeometry x="215" y="270" width="80" height="30" as="geometry"/>
                </mxCell>
                <mxCell id="26" value="c" style="text;html=1;align=center;verticalAlign=middle;resizable=0;points=[];autosize=1;strokeColor=none;fillColor=none;" vertex="1" parent="1">
                    <mxGeometry x="265" y="315" width="30" height="30" as="geometry"/>
                </mxCell>
                <mxCell id="27" value="d" style="text;html=1;align=center;verticalAlign=middle;resizable=0;points=[];autosize=1;strokeColor=none;fillColor=none;" vertex="1" parent="1">
                    <mxGeometry x="265" y="355" width="30" height="30" as="geometry"/>
                </mxCell>
                <mxCell id="28" value="b" style="text;html=1;align=center;verticalAlign=middle;resizable=0;points=[];autosize=1;strokeColor=none;fillColor=none;" vertex="1" parent="1">
                    <mxGeometry x="370" y="195" width="30" height="30" as="geometry"/>
                </mxCell>
                <mxCell id="29" value="c" style="text;html=1;align=center;verticalAlign=middle;resizable=0;points=[];autosize=1;strokeColor=none;fillColor=none;" vertex="1" parent="1">
                    <mxGeometry x="435" y="195" width="30" height="30" as="geometry"/>
                </mxCell>
                <mxCell id="30" value="d" style="text;html=1;align=center;verticalAlign=middle;resizable=0;points=[];autosize=1;strokeColor=none;fillColor=none;" vertex="1" parent="1">
                    <mxGeometry x="495" y="195" width="30" height="30" as="geometry"/>
                </mxCell>
                <mxCell id="35" style="edgeStyle=none;html=1;entryX=0;entryY=0.5;entryDx=0;entryDy=0;entryPerimeter=0;exitX=0.855;exitY=0.145;exitDx=0;exitDy=0;exitPerimeter=0;" edge="1" parent="1" source="31" target="34">
                    <mxGeometry relative="1" as="geometry"/>
                </mxCell>
                <mxCell id="36" style="edgeStyle=none;html=1;entryX=0;entryY=0.5;entryDx=0;entryDy=0;entryPerimeter=0;" edge="1" parent="1" source="31" target="33">
                    <mxGeometry relative="1" as="geometry"/>
                </mxCell>
                <mxCell id="31" value="a" style="strokeWidth=2;html=1;shape=mxgraph.flowchart.start_2;whiteSpace=wrap;" vertex="1" parent="1">
                    <mxGeometry x="165" y="900" width="100" height="100" as="geometry"/>
                </mxCell>
                <mxCell id="41" style="edgeStyle=none;html=1;entryX=0.855;entryY=0.855;entryDx=0;entryDy=0;entryPerimeter=0;exitX=0.145;exitY=0.855;exitDx=0;exitDy=0;exitPerimeter=0;" edge="1" parent="1" source="32" target="31">
                    <mxGeometry relative="1" as="geometry">
                        <Array as="points">
                            <mxPoint x="500" y="1070"/>
                            <mxPoint x="390" y="1070"/>
                        </Array>
                    </mxGeometry>
                </mxCell>
                <mxCell id="32" value="c" style="strokeWidth=2;html=1;shape=mxgraph.flowchart.start_2;whiteSpace=wrap;" vertex="1" parent="1">
                    <mxGeometry x="610" y="890" width="100" height="100" as="geometry"/>
                </mxCell>
                <mxCell id="49" style="edgeStyle=none;html=1;entryX=0.006;entryY=0.581;entryDx=0;entryDy=0;entryPerimeter=0;" edge="1" parent="1" source="33" target="32">
                    <mxGeometry relative="1" as="geometry"/>
                </mxCell>
                <mxCell id="52" style="edgeStyle=none;html=1;entryX=0.855;entryY=0.855;entryDx=0;entryDy=0;entryPerimeter=0;exitX=0.145;exitY=0.855;exitDx=0;exitDy=0;exitPerimeter=0;" edge="1" parent="1" source="33" target="33">
                    <mxGeometry relative="1" as="geometry">
                        <mxPoint x="520" y="1020" as="targetPoint"/>
                        <Array as="points">
                            <mxPoint x="390" y="1040"/>
                            <mxPoint x="490" y="1040"/>
                        </Array>
                    </mxGeometry>
                </mxCell>
                <mxCell id="33" value="d" style="strokeWidth=2;html=1;shape=mxgraph.flowchart.start_2;whiteSpace=wrap;" vertex="1" parent="1">
                    <mxGeometry x="390" y="900" width="100" height="100" as="geometry"/>
                </mxCell>
                <mxCell id="38" style="edgeStyle=none;html=1;entryX=0.5;entryY=0;entryDx=0;entryDy=0;entryPerimeter=0;" edge="1" parent="1" source="34" target="33">
                    <mxGeometry relative="1" as="geometry"/>
                </mxCell>
                <mxCell id="51" style="edgeStyle=none;html=1;entryX=0.145;entryY=0.145;entryDx=0;entryDy=0;entryPerimeter=0;exitX=1;exitY=0.5;exitDx=0;exitDy=0;exitPerimeter=0;" edge="1" parent="1" source="34" target="32">
                    <mxGeometry relative="1" as="geometry"/>
                </mxCell>
                <mxCell id="34" value="b" style="strokeWidth=2;html=1;shape=mxgraph.flowchart.start_2;whiteSpace=wrap;" vertex="1" parent="1">
                    <mxGeometry x="390" y="740" width="100" height="100" as="geometry"/>
                </mxCell>
                <mxCell id="42" value="50" style="text;html=1;align=center;verticalAlign=middle;resizable=0;points=[];autosize=1;strokeColor=none;fillColor=none;" vertex="1" parent="1">
                    <mxGeometry x="280" y="820" width="40" height="30" as="geometry"/>
                </mxCell>
                <mxCell id="43" value="20" style="text;html=1;align=center;verticalAlign=middle;resizable=0;points=[];autosize=1;strokeColor=none;fillColor=none;" vertex="1" parent="1">
                    <mxGeometry x="310" y="915" width="40" height="30" as="geometry"/>
                </mxCell>
                <mxCell id="44" value="50" style="text;html=1;align=center;verticalAlign=middle;resizable=0;points=[];autosize=1;strokeColor=none;fillColor=none;" vertex="1" parent="1">
                    <mxGeometry x="400" y="855" width="40" height="30" as="geometry"/>
                </mxCell>
                <mxCell id="45" value="80" style="text;html=1;align=center;verticalAlign=middle;resizable=0;points=[];autosize=1;strokeColor=none;fillColor=none;" vertex="1" parent="1">
                    <mxGeometry x="560" y="825" width="40" height="30" as="geometry"/>
                </mxCell>
                <mxCell id="46" value="15" style="text;html=1;align=center;verticalAlign=middle;resizable=0;points=[];autosize=1;strokeColor=none;fillColor=none;" vertex="1" parent="1">
                    <mxGeometry x="420" y="1045" width="40" height="30" as="geometry"/>
                </mxCell>
                <mxCell id="48" value="Directed graph" style="text;html=1;align=center;verticalAlign=middle;resizable=0;points=[];autosize=1;strokeColor=none;fillColor=none;" vertex="1" parent="1">
                    <mxGeometry x="170" y="135" width="100" height="30" as="geometry"/>
                </mxCell>
                <mxCell id="50" value="100" style="text;html=1;align=center;verticalAlign=middle;resizable=0;points=[];autosize=1;strokeColor=none;fillColor=none;" vertex="1" parent="1">
                    <mxGeometry x="510" y="905" width="40" height="30" as="geometry"/>
                </mxCell>
                <mxCell id="53" value="20" style="text;html=1;align=center;verticalAlign=middle;resizable=0;points=[];autosize=1;strokeColor=none;fillColor=none;" vertex="1" parent="1">
                    <mxGeometry x="420" y="1015" width="40" height="30" as="geometry"/>
                </mxCell>
            </root>
        </mxGraphModel>
    </diagram>
</mxfile>